Coordinates
version=1
nRows=10
nColumns=28
inDegrees=yes

Units are S.I. units (second, meters, Newtons, ...)
Angles are in degrees.

endheader
time	pelvis_tilt	pelvis_list	pelvis_rotation	pelvis_tx	pelvis_ty	pelvis_tz	hip_flexion_r	hip_adduction_r	hip_rotation_r	knee_angle_r	ankle_angle_r	subtalar_angle_r	mtp_angle_r	hip_flexion_l	hip_adduction_l	hip_rotation_l	knee_angle_l	socket_flexion	socket_adduction	socket_rotation	socket_tx	socket_ty	socket_tz	foot_flex	lumbar_extension	lumbar_bending	lumbar_rotation
      0.00000000	      1.03575169	     -9.08613798	    -12.58646310	     -0.87239326	      0.98095889	      0.31779019	    -24.03032224	      7.94008351	     11.26574175	    -11.15126018	      9.79276213	     -6.43240581	     26.76431890	     27.03491451	    -14.74107529	      5.56405890	     -7.10655162	     -2.67133265	      0.00000000	      0.00000000	      0.00000000	      0.00145203	      0.00000000	      2.46177972	    -13.31895996	      6.16916401	     18.45883772
      0.00416667	      0.94469959	     -9.18343958	    -12.59997941	     -0.86700136	      0.98020440	      0.31739254	    -24.03947264	      7.99714002	     11.25168544	    -11.53916703	      9.58592809	     -6.49297862	     26.76116796	     26.79555773	    -14.78038289	      5.54146225	     -6.99371968	     -2.69226474	      0.00000000	      0.00000000	      0.00000000	      0.00084378	      0.00000000	      2.13142123	    -13.18453172	      6.28254528	     18.46657375
      0.00833333	      0.83452280	     -9.28427055	    -12.64825347	     -0.86137647	      0.97944417	      0.31703877	    -24.00798522	      8.04954102	     11.22858512	    -11.98847136	      9.33243708	     -6.56823195	     26.76418445	     26.53303210	    -14.84299749	      5.51045573	     -6.83083522	     -2.67953458	      0.00000000	      0.00000000	      0.00000000	      0.00021192	      0.00000000	      1.81146972	    -13.03761781	      6.40338828	     18.47997600
      0.01250000	      0.74513162	     -9.33370886	    -12.58508265	     -0.85540501	      0.97865103	      0.31653622	    -24.09160086	      8.08257413	     11.27443012	    -12.25136846	      9.24431979	     -6.58193649	     26.76713041	     26.31981444	    -14.78736766	      5.50454969	     -6.81295238	     -2.71486191	      0.00000000	      0.00000000	      0.00000000	     -0.00032393	      0.00000000	      1.71396769	    -12.84644464	      6.46786912	     18.48472929
      0.01666667	      0.61073832	     -9.44760871	    -12.71856602	     -0.84947778	      0.97788455	      0.31627718	    -23.95813839	      8.11868212	     11.19063813	    -12.88938446	      8.82777208	     -6.69278280	     26.75583832	     26.01271084	    -14.90837661	      5.45976095	     -6.57244811	     -2.69174608	      0.00000000	      0.00000000	      0.00000000	     -0.00114607	      0.00000000	      1.13526354	    -12.70002494	      6.59548920	     18.48231865
      0.02083333	      0.52199525	     -9.48936317	    -12.62845021	     -0.84317189	      0.97708660	      0.31567213	    -24.05161360	      8.14552095	     11.25416606	    -13.15332554	      8.74398946	     -6.69922649	     26.76015136	     25.80455956	    -14.82637535	      5.44580657	     -6.57535814	     -2.70391872	      0.00000000	      0.00000000	      0.00000000	     -0.00173423	      0.00000000	      1.08056635	    -12.49612711	      6.66447843	     18.48964861
      0.02500000	      0.05609914	     -9.51123611	    -13.10113274	     -0.83657796	      0.97615067	      0.31600767	    -23.52102900	      8.06805121	     11.43555800	    -13.91714554	      7.86916369	     -7.13083991	     27.31532345	     25.29102441	    -15.09689723	      5.08816593	     -5.10977111	     -1.86050233	      0.00000000	      0.00000000	      0.00000000	     -0.00278921	      0.00000000	      0.62003296	    -11.90706794	      6.72218701	     18.87558604
      0.02916667	      0.01638054	     -9.56881994	    -13.12214651	     -0.83030904	      0.97552230	      0.31556646	    -23.52126167	      8.06417422	     11.43361900	    -14.45775972	      7.56262411	     -7.20977150	     27.36099666	     24.98012944	    -15.08085463	      5.07642639	     -5.08758930	     -1.90582009	      0.00000000	      0.00000000	      0.00000000	     -0.00354817	      0.00000000	      0.27005896	    -11.82457843	      6.76642228	     18.85029834
      0.03333333	     -0.05611274	     -9.61092099	    -13.16906908	     -0.82388572	      0.97487882	      0.31514925	    -23.46386170	      8.04068966	     11.38901202	    -15.03802495	      7.13620689	     -7.30852289	     27.42382638	     24.67185762	    -15.06337102	      5.00585428	     -5.00441862	     -1.88486338	      0.00000000	      0.00000000	      0.00000000	     -0.00437501	      0.00000000	     -0.03481440	    -11.69156615	      6.81286881	     18.83292778
      0.03750000	     -0.14900268	     -9.62307435	    -13.21021631	     -0.81737018	      0.97427266	      0.31474273	    -23.37180611	      7.99626125	     11.35942489	    -15.62149019	      6.66263513	     -7.41224576	     27.50617938	     24.36965942	    -15.02161482	      4.94831285	     -4.88216339	     -1.83577638	      0.00000000	      0.00000000	      0.00000000	     -0.00518361	      0.00000000	     -0.33317707	    -11.51503141	      6.82343447	     18.81763974
